<svg width="50" height="63" viewBox="0 0 50 63" fill="none" xmlns="http://www.w3.org/2000/svg">
<path d="M50 30.8414C50 44.6146 38.8071 55.78 25 55.78C11.1929 55.78 0 44.6146 0 30.8414C0 17.0682 11.1929 5.90283 25 5.90283C38.8071 5.90283 50 17.0682 50 30.8414Z" fill="#6971A9"/>
<path d="M45.3403 10.9999L45 11.5001H41H37L37.0563 10.9999V5.7999V5.37149L41 5.5001L45.3403 5.37149V5.7999V10.9999Z" fill="#C2B1CB"/>
<path d="M32.9138 10.8462C35.2014 10.8462 37.0558 8.99631 37.0558 6.71436H37.5V11H32.9138V10.8462Z" fill="#C2B1CB"/>
<path d="M20.8583 23.2412C20.8583 20.9592 19.0039 19.1093 16.7163 19.1093V18.6797L21.1907 18.6797V23.2412H20.8583Z" fill="#C2B1CB"/>
<path d="M37.1293 10.8457H37.5V15V19L37.1293 19.1094H7.25332C6.02503 19.1094 5.0293 18.1184 5.0293 16.8959V13.0592C5.0293 11.8367 6.02503 10.8457 7.25332 10.8457H37.1293Z" fill="#C2B1CB"/>
<path d="M45.3403 10.8457C45.3403 15.4096 41.6314 19.1094 37.0563 19.1094V10.8457H45.3403Z" fill="#C2B1CB"/>
<path d="M40.4395 0.223886C40.827 -0.0746286 41.5699 -0.0746286 41.9575 0.223886L48.0883 4.94614C48.5906 5.33305 48.1387 5.90263 47.3293 5.90263H35.0677C34.2583 5.90263 33.8064 5.33305 34.3087 4.94614L40.4395 0.223886Z" fill="#C2B1CB"/>
<path d="M21.0001 59.3213L21.5 59V55V51.0576H21.0001H10.8001H10.5V55L10.5 59.3213H10.8001H21.0001Z" fill="#C2B1CB"/>
<path d="M20.8583 46.9258C20.8583 49.2077 19.0039 51.0576 16.7163 51.0576V51.5H21.5V46.9258H20.8583Z" fill="#C2B1CB"/>
<path d="M20.8582 51.2V51.5H25H29L29.1422 51.2V19V18.5H25H20.8582V19V51.2Z" fill="#C2B1CB"/>
<path d="M20.8582 59.3213C25.4333 59.3213 29.1422 55.6215 29.1422 51.0576H20.8582V59.3213Z" fill="#C2B1CB"/>
<path d="M5.25374 54.4324C4.95448 54.8191 4.95448 55.5601 5.25374 55.9468L9.98758 62.0625C10.3755 62.5635 10.9465 62.1127 10.9465 61.3053V49.0739C10.9465 48.2665 10.3755 47.8157 9.98758 48.3167L5.25374 54.4324Z" fill="#C2B1CB"/>
</svg>
