<svg width="71" height="46" viewBox="0 0 71 46" fill="none" xmlns="http://www.w3.org/2000/svg">
<path d="M68 26C69.6569 26 71 24.6569 71 23C71 21.3431 69.6569 20 68 20V26ZM0.878682 20.8787C-0.292891 22.0503 -0.292891 23.9497 0.878682 25.1213L19.9706 44.2132C21.1421 45.3848 23.0416 45.3848 24.2132 44.2132C25.3848 43.0416 25.3848 41.1421 24.2132 39.9706L7.24264 23L24.2132 6.02944C25.3848 4.85786 25.3848 2.95837 24.2132 1.7868C23.0416 0.615224 21.1421 0.615224 19.9706 1.7868L0.878682 20.8787ZM68 20L3 20V26L68 26V20Z" fill="#6971A9"/>
</svg>
