<svg width="66" height="65" viewBox="0 0 66 65" fill="none" xmlns="http://www.w3.org/2000/svg">
<path fill-rule="evenodd" clip-rule="evenodd" d="M37.2078 0C38.8646 0 40.2077 1.34315 40.2077 3V9.3728C40.2077 12.0455 43.4392 13.384 45.3291 11.4941L49.1785 7.64469C50.3501 6.47312 52.2496 6.47312 53.4211 7.64469L59.0275 13.251C60.1991 14.4226 60.1991 16.3221 59.0275 17.4937L55.6425 20.8787C53.7526 22.7686 55.0911 26 57.7638 26H62.2792C63.936 26 65.2792 27.3431 65.2792 29V36.9286C65.2792 38.5854 63.936 39.9286 62.2792 39.9286H56.835C54.1623 39.9286 52.8238 43.16 54.7137 45.0499L58.5634 48.8996C59.7349 50.0711 59.7349 51.9706 58.5634 53.1422L52.957 58.7485C51.7854 59.9201 49.8859 59.9201 48.7144 58.7485L45.3291 55.3632C43.4392 53.4734 40.2077 54.8119 40.2077 57.4846V62C40.2077 63.6569 38.8646 65 37.2077 65H29.2792C27.6223 65 26.2792 63.6569 26.2792 62V57.4846C26.2792 54.8119 23.0478 53.4734 21.1579 55.3633L17.3082 59.213C16.1366 60.3845 14.2371 60.3845 13.0656 59.213L7.45921 53.6066C6.28763 52.4351 6.28763 50.5356 7.4592 49.364L11.7733 45.0499C13.6632 43.16 12.3247 39.9286 9.65198 39.9286H3.27918C1.62232 39.9286 0.279175 38.5854 0.279175 36.9286V29C0.279175 27.3431 1.62232 26 3.27917 26H8.72318C11.3959 26 12.7344 22.7686 10.8445 20.8787L6.99507 17.0292C5.82349 15.8577 5.82349 13.9582 6.99506 12.7866L12.6014 7.18026C13.773 6.00869 15.6725 6.00868 16.8441 7.18026L21.1579 11.4941C23.0478 13.384 26.2792 12.0455 26.2792 9.37274V3C26.2792 1.34315 27.6223 0 29.2792 0H37.2078ZM33.2435 43.6429C39.6539 43.6429 44.8506 38.4462 44.8506 32.0357C44.8506 25.6253 39.6539 20.4286 33.2435 20.4286C26.833 20.4286 21.6363 25.6253 21.6363 32.0357C21.6363 38.4462 26.833 43.6429 33.2435 43.6429Z" fill="#6971A9"/>
</svg>
