<svg width="676" height="844" viewBox="0 0 676 844" fill="none" xmlns="http://www.w3.org/2000/svg">
<g clip-path="url(#clip0_17_2533)">
<path d="M676 418C676 604.672 524.672 756 338 756C151.328 756 0 604.672 0 418C0 231.328 151.328 80 338 80C524.672 80 676 231.328 676 418Z" fill="#151E35"/>
<path d="M613 147H501V80H613V147Z" fill="#6971A9"/>
<path d="M445 147C475.928 147 501 121.928 501 91V147H445Z" fill="#6971A9"/>
<path d="M282 315C282 284.072 256.928 259 226 259H282V315Z" fill="#6971A9"/>
<path d="M501 147V259H98C81.4315 259 68 245.569 68 229V177C68 160.431 81.4315 147 98 147H501Z" fill="#6971A9"/>
<path d="M613 147C613 208.856 562.856 259 501 259V147H613Z" fill="#6971A9"/>
<path d="M546.738 3.03439C551.978 -1.01146 562.022 -1.01146 567.262 3.03439L650.15 67.0365C656.941 72.2804 650.831 80 639.888 80H474.112C463.169 80 457.059 72.2804 463.85 67.0365L546.738 3.03439Z" fill="#6971A9"/>
<path d="M282 804V692H148V804H282Z" fill="#6971A9"/>
<path d="M282 636C282 666.928 256.928 692 226 692H282V636Z" fill="#6971A9"/>
<path d="M282 692H394V259H282V692Z" fill="#6971A9"/>
<path d="M282 804C343.856 804 394 753.856 394 692H282V804Z" fill="#6971A9"/>
<path d="M71.0344 737.738C66.9885 742.978 66.9885 753.022 71.0344 758.262L135.036 841.15C140.28 847.941 148 841.831 148 830.888V665.112C148 654.169 140.28 648.059 135.036 654.85L71.0344 737.738Z" fill="#6971A9"/>
</g>
<defs>
<clipPath id="clip0_17_2533">
<rect width="676" height="844" fill="white"/>
</clipPath>
</defs>
</svg>
